<?xml version="1.0" encoding="UTF-8" standalone="no"?>
<svg
   xmlns:dc="http://purl.org/dc/elements/1.1/"
   xmlns:cc="http://creativecommons.org/ns#"
   xmlns:rdf="http://www.w3.org/1999/02/22-rdf-syntax-ns#"
   xmlns:svg="http://www.w3.org/2000/svg"
   xmlns="http://www.w3.org/2000/svg"
   width="500"
   height="67"
   viewBox="0 0 500 67"
   fill="none"
   version="1.1"
   id="svg34">
  <metadata
     id="metadata40">
    <rdf:RDF>
      <cc:Work
         rdf:about="">
        <dc:format>image/svg+xml</dc:format>
        <dc:type
           rdf:resource="http://purl.org/dc/dcmitype/StillImage" />
        <dc:title></dc:title>
      </cc:Work>
    </rdf:RDF>
  </metadata>
  <defs
     id="defs38" />
  <path
     d="M312.923 65.6351C308.924 63.7843 305.769 60.495 304.086 56.4225C302.732 52.3388 302.889 47.9049 304.527 43.9267C306.249 40.6914 308.9 38.0459 312.139 36.3313C314.294 35.2116 316.731 34.7515 319.146 35.0082C324.259 35.0082 327.036 36.0699 330.286 39.2061C332.713 41.4858 334.325 44.4981 334.876 47.7816C335.497 49.7372 335.497 51.8371 334.876 53.7927C334.37 56.8565 332.906 59.6813 330.695 61.8618C329.354 63.4134 327.686 64.6476 325.81 65.4754C323.935 66.3031 321.898 66.7035 319.849 66.6478C317.486 66.963 315.081 66.6123 312.907 65.6351H312.923ZM322.903 56.4878C323.895 55.8991 324.717 55.0625 325.288 54.0602C325.858 53.0578 326.158 51.9242 326.158 50.7708C326.158 49.6174 325.858 48.4838 325.288 47.4815C324.717 46.4791 323.895 45.6425 322.903 45.0538C321.925 44.6015 320.861 44.3673 319.783 44.3673C318.706 44.3673 317.641 44.6015 316.664 45.0538C315.212 45.9391 314.139 47.3282 313.647 48.9555C313.156 50.5828 313.282 52.334 314.001 53.8743C314.883 55.3511 316.287 56.4427 317.936 56.9328C319.585 57.4229 321.358 57.2757 322.903 56.5205V56.4878ZM458.478 65.7821C454.81 64.2207 451.804 61.4234 449.984 57.8763C448.858 55.7746 448.365 53.3919 448.563 51.0158C448.325 48.5874 448.796 46.1421 449.919 43.9757C451.538 40.504 454.308 37.6992 457.759 36.0373C462.13 34.5585 466.865 34.5585 471.235 36.0373C474.461 37.6446 477.081 40.2508 478.706 43.4678C480.331 46.6848 480.873 50.3406 480.252 53.8907C479.614 56.6254 478.314 59.1613 476.465 61.275C474.617 63.3886 472.276 65.015 469.651 66.0108C465.97 67.0484 462.064 66.9689 458.429 65.7821H458.478ZM468.703 55.8018C469.537 54.8834 470.196 53.8205 470.647 52.6656C471.024 52.0188 471.205 51.2771 471.171 50.5296C471.136 49.782 470.886 49.0604 470.451 48.4513C470.118 47.5936 469.607 46.8161 468.951 46.1696C468.296 45.5231 467.512 45.0224 466.65 44.7001C465.788 44.3778 464.868 44.2412 463.949 44.2994C463.031 44.3575 462.135 44.609 461.32 45.0375C459.547 46.4482 458.351 48.4581 457.955 50.6891C458.212 52.8728 459.3 54.8737 460.994 56.2755C462.194 56.9272 463.553 57.2283 464.916 57.1446C466.28 57.0608 467.592 56.5955 468.703 55.8018V55.8018ZM337.261 56.6022C337.165 55.9425 337.256 55.2693 337.522 54.6584C337.865 53.4248 338.03 52.1489 338.012 50.8688C338.012 43.7471 332.998 36.1679 326.693 33.7994C322.208 31.9523 317.182 31.9178 312.672 33.7033C308.163 35.4888 304.522 38.9549 302.518 43.3714C301.292 46.0512 300.732 48.9876 300.885 51.9306L301.048 54.6094L298.892 54.4787C297.716 54.4787 291.688 53.809 285.514 53.123L274.292 51.8816L272.528 50.2481C271.318 49.014 270.309 47.5974 269.539 46.0502C268.592 43.9267 268.445 42.7833 268.445 37.883C268.445 31.725 269.539 25.9426 271.009 24.3092C271.646 23.5905 273.329 23.2801 280.63 22.6758C292.668 21.5324 296.197 20.8953 302.6 18.6902C345.559 3.98929 349.087 2.87856 359.476 1.4248C370.656 -0.252345 382.028 -0.191738 393.19 1.60448C397.633 2.48654 401.814 4.47932 401.814 5.72073C401.814 6.24343 405.8 9.28162 413.036 14.2799L424.274 22.0224L429.762 21.418C441.598 20.1892 453.532 20.2494 465.355 21.5977C491.49 23.9662 498.53 25.0769 499.232 26.9227C499.229 30.4604 498.917 33.991 498.301 37.4747C498.04 39.2061 498.122 39.5001 499.004 39.7778C499.886 40.0555 500 40.4802 500 42.228C500 43.9757 499.902 44.3678 498.595 44.6291C497.289 44.8905 497.174 45.0538 496.962 47.602L496.815 50.2971L494.25 51.5549C490.96 52.9431 487.499 53.8878 483.96 54.3644C483.486 54.3644 483.257 53.27 483.11 50.1828C483.051 45.6853 481.267 41.3821 478.128 38.1607C469.7 28.7848 453.627 31.2186 448.09 42.7017C446.555 46.0391 445.989 49.7407 446.456 53.3843C446.674 54.304 446.74 55.2529 446.652 56.1938C446.456 56.4062 375.042 57.1412 349.283 57.2065C339.858 57.2065 337.392 57.0922 337.196 56.6022H337.261ZM404.232 48.68L414.261 48.386L399.021 48.0266C390.625 47.8306 364.572 47.0139 364.572 47.0139H344.563L343.958 43.6491C343.612 41.7494 343.03 39.9003 342.227 38.1444C341.41 36.609 341.247 35.9392 341.671 35.8249C342.096 35.7106 350.312 35.5146 360.162 35.3512C370.011 35.1879 384.288 34.9265 391.899 34.7305C404.02 34.4202 405.147 34.3385 400.965 34.0118C398.335 33.7994 382.916 33.7668 366.663 34.0118L337.147 34.3058L338.568 35.7922C341.098 38.6858 342.486 42.4026 342.472 46.2462V48.7127H368.688C382.687 49.0557 398.646 48.9087 404.167 48.7127L404.232 48.68ZM413.542 22.1367C412.22 20.899 410.823 19.7426 409.361 18.6739C407.074 16.8771 404.869 15.162 404.461 14.8353C404.052 14.5086 401.373 12.4178 398.482 10.1963C393.811 6.60279 392.929 6.11276 390.642 5.81874C381.844 5.47907 373.033 5.77932 364.278 6.71713C357.875 7.64818 352.844 8.87326 352.844 9.47763C352.844 10.082 355.817 20.0296 356.421 21.6794C356.585 22.1531 362.759 22.2837 385.088 22.2837C400.72 22.3491 413.51 22.2511 413.51 22.1367H413.542ZM330.09 17.9225C329.894 16.7137 329.551 16.142 329.029 16.142C327.657 16.142 327.183 16.8117 327.395 18.3798C327.559 19.4742 327.918 20.0133 328.653 20.0133C330.107 20.3236 330.384 19.9153 330.058 17.9225H330.09ZM337.359 19.1802C337.196 18.4942 336.934 17.2691 336.787 16.4361C336.33 13.7572 336.314 13.7409 334.729 14.2799C333.929 14.5739 333.276 14.9333 333.276 15.113C333.276 15.2926 334.141 18.8045 334.484 19.8336C334.582 20.1603 335.35 20.438 336.118 20.438C337.49 20.438 337.588 20.34 337.294 19.1802H337.359ZM344.203 16.6484C342.88 12.6955 342.717 12.4341 341.622 12.6302C339.711 13.0058 339.548 13.7082 340.577 17.4161L341.541 20.879H345.624L344.203 16.6484ZM323.704 19.6049C323.633 19.2443 323.495 18.9006 323.295 18.5922C322.773 17.7755 320.028 18.2818 319.702 19.2782C319.506 19.8009 319.914 19.9643 321.58 19.9643C322.756 19.9643 323.704 19.8009 323.704 19.6049V19.6049Z"
     fill="#4CCEC1"
     id="path2" />
  <path
     d="M65.8054 55.9165C65.8054 53.6965 66.2446 51.6601 67.1231 49.8075C68.0015 47.9548 69.2233 46.4934 70.7885 45.4234C72.3536 44.3373 74.0945 43.7943 76.0111 43.7943C77.8637 43.7943 79.365 44.2574 80.515 45.1838C81.6649 46.1101 82.2399 47.3159 82.2399 48.8013C82.2399 49.0089 82.2079 49.4082 82.144 49.9991H78.7661C78.7661 47.9069 77.712 46.8608 75.6038 46.8608C74.7573 46.8608 73.9907 47.0285 73.3039 47.3639C72.6172 47.6833 72.0582 48.1145 71.627 48.6575C71.1957 49.2006 70.8204 49.7835 70.501 50.4064C70.1975 51.0133 69.9659 51.6522 69.8062 52.323C69.6465 52.9778 69.5347 53.5448 69.4708 54.0239C69.4069 54.4871 69.375 54.8863 69.375 55.2217C69.375 57.7612 70.5489 59.0309 72.8967 59.0309C74.0466 59.0309 75.0288 58.7354 75.8434 58.1445C76.6579 57.5376 77.2409 56.6831 77.5922 55.5811H81.0181C80.491 57.6254 79.4688 59.2226 77.9516 60.3725C76.4343 61.5224 74.5816 62.0974 72.3936 62.0974C70.3492 62.0974 68.7361 61.5464 67.5543 60.4444C66.3884 59.3423 65.8054 57.833 65.8054 55.9165V55.9165Z"
     fill="#A5A3A1"
     id="path4"
     style="fill:#fff8e7;fill-opacity:1" />
  <path
     d="M93.2841 58.0247H86.7678L84.8273 61.5464H81.1619L90.9123 44.0818H95.0569L97.3807 61.5464H93.7153L93.2841 58.0247ZM92.9487 55.0301L92.1102 48.2503L88.4208 55.0301H92.9487Z"
     fill="#A5A3A1"
     id="path6"
     style="fill:#fff8e7;fill-opacity:1" />
  <path
     d="M110.054 60.5641C110.054 60.0211 110.205 59.1746 110.509 58.0247C110.812 56.8748 110.964 56.18 110.964 55.9404C110.964 55.062 110.285 54.6228 108.928 54.6228H104.807L103.346 61.5464H99.7522L103.466 44.0818H112.497C113.28 44.0818 113.959 44.2095 114.534 44.4651C115.109 44.7046 115.54 45.0161 115.827 45.3994C116.115 45.7827 116.322 46.166 116.45 46.5493C116.578 46.9326 116.642 47.308 116.642 47.6753C116.642 48.3301 116.53 48.945 116.306 49.52C116.099 50.095 115.859 50.5661 115.588 50.9334C115.316 51.2848 114.957 51.6282 114.51 51.9636C114.078 52.299 113.743 52.5306 113.503 52.6583C113.28 52.7861 112.992 52.9378 112.641 53.1135C113.887 53.5288 114.51 54.1836 114.51 55.078C114.51 55.621 114.382 56.5234 114.126 57.7851C113.887 59.0469 113.767 59.8135 113.767 60.085C113.767 60.4044 113.911 60.6759 114.198 60.8995L114.055 61.5464H110.245C110.118 61.1471 110.054 60.8197 110.054 60.5641H110.054ZM113.072 48.7534C113.072 47.6354 112.194 47.0764 110.437 47.0764H106.412L105.454 51.6282H109.79C110.429 51.6282 110.972 51.5324 111.419 51.3407C111.882 51.1331 112.226 50.8696 112.449 50.5501C112.673 50.2307 112.833 49.9273 112.929 49.6398C113.024 49.3363 113.072 49.0408 113.072 48.7534V48.7534Z"
     fill="#A5A3A1"
     id="path8"
     style="fill:#fff8e7;fill-opacity:1" />
  <path
     d="M139.281 61.5464H136.047L135.951 48.2503L130.273 61.5464H127.039L125.817 44.0818H129.627L129.555 57.1622L134.921 44.0818H138.706L138.634 57.2102L144.025 44.0818H147.834L139.281 61.5464Z"
     fill="#A5A3A1"
     id="path10"
     style="fill:#fff8e7;fill-opacity:1" />
  <path
     d="M157.153 58.0247H150.637L148.696 61.5464H145.031L154.781 44.0818H158.926L161.25 61.5464H157.584L157.153 58.0247ZM156.818 55.0301L155.979 48.2503L152.29 55.0301H156.818Z"
     fill="#A5A3A1"
     id="path12"
     style="fill:#fff8e7;fill-opacity:1" />
  <path
     d="M165.322 50.2387C165.322 48.402 166.025 46.8688 167.43 45.639C168.836 44.4092 170.705 43.7943 173.036 43.7943C174.937 43.7943 176.414 44.1616 177.468 44.8963C178.538 45.615 179.073 46.6212 179.073 47.9149C179.073 48.3142 179.01 48.8093 178.882 49.4002H175.528C175.56 49.1127 175.576 48.929 175.576 48.8492C175.576 47.5236 174.522 46.8608 172.413 46.8608C171.327 46.8608 170.465 47.0844 169.826 47.5316C169.203 47.9788 168.892 48.5857 168.892 49.3523C168.892 49.7995 169.091 50.1509 169.491 50.4064C169.89 50.646 170.657 50.8776 171.791 51.1011L174.402 51.6282C175.632 51.8678 176.566 52.291 177.205 52.8979C177.844 53.5048 178.163 54.2715 178.163 55.1978C178.163 55.7728 178.091 56.3477 177.947 56.9227C177.804 57.4977 177.54 58.1046 177.157 58.7434C176.774 59.3823 176.286 59.9413 175.696 60.4204C175.105 60.8995 174.314 61.2988 173.324 61.6182C172.334 61.9377 171.216 62.0974 169.97 62.0974C168.74 62.0974 167.678 61.9457 166.784 61.6422C165.905 61.3547 165.242 60.9714 164.795 60.4923C164.348 59.9972 164.02 59.4941 163.813 58.983C163.621 58.4719 163.525 57.9369 163.525 57.3779C163.525 57.1064 163.557 56.755 163.621 56.3238H167.119C167.087 56.6112 167.071 56.7949 167.071 56.8748C167.071 57.5615 167.367 58.0966 167.957 58.4799C168.564 58.8472 169.411 59.0309 170.497 59.0309C171.743 59.0309 172.733 58.7913 173.468 58.3122C174.218 57.8171 174.594 57.1702 174.594 56.3717C174.594 55.8127 174.386 55.3894 173.971 55.102C173.555 54.8145 172.805 54.5589 171.719 54.3353L169.371 53.8562C167.949 53.5687 166.919 53.1455 166.28 52.5865C165.642 52.0115 165.322 51.2289 165.322 50.2387Z"
     fill="#A5A3A1"
     id="path14"
     style="fill:#fff8e7;fill-opacity:1" />
  <path
     d="M191.507 53.6166H184.584L182.907 61.5464H179.313L183.027 44.0818H186.62L185.231 50.622H192.13L193.52 44.0818H197.137L193.424 61.5464H189.83L191.507 53.6166Z"
     fill="#A5A3A1"
     id="path16"
     style="fill:#fff8e7;fill-opacity:1" />
  <path
     d="M111.796 4.93872C113.341 4.87878 114.882 5.1402 116.32 5.70643C117.318 6.09391 118.196 6.73592 118.869 7.56855C119.396 8.26173 119.698 9.09968 119.734 9.96969C119.776 10.7782 119.643 11.5863 119.342 12.3382C118.919 13.3699 118.303 14.3121 117.529 15.115C116.686 16.0026 115.73 16.7768 114.687 17.4181C113.607 18.0862 112.456 18.634 111.257 19.0516C110.121 19.4613 108.933 19.7087 107.729 19.7866C108.633 19.8781 109.507 20.1614 110.293 20.6178C111.079 21.0741 111.758 21.6929 112.286 22.4328C112.754 23.2591 113.044 24.1745 113.137 25.1198C113.23 26.0651 113.124 27.0194 112.825 27.9211C112.476 29.0972 111.923 30.203 111.191 31.188C110.375 32.3866 109.365 33.441 108.202 34.3078C106.923 35.2854 105.509 36.0722 104.004 36.6437C102.309 37.2615 100.516 37.5659 98.712 37.542H70.4863L88.8624 4.87338L111.796 4.93872ZM94.5468 21.2731L87.0983 34.5039H91.5086C92.4313 34.5113 93.3467 34.3393 94.2038 33.9975C95.0416 33.6596 95.8236 33.197 96.5232 32.6254C97.2382 32.0371 97.8652 31.3496 98.3854 30.5836C98.9224 29.8077 99.3613 28.9683 99.6921 28.0845C100.003 27.2696 100.174 26.4081 100.198 25.5363C100.23 24.7905 100.09 24.0474 99.7901 23.3638C99.498 22.7296 99.0193 22.1997 98.418 21.8448C97.684 21.4242 96.8458 21.2203 96.0005 21.2567L94.5468 21.2731ZM102.289 7.50321L96.0005 18.6759H98.9407C100.662 18.6714 102.334 18.0971 103.694 17.0425C105.149 15.9632 106.312 14.5369 107.075 12.8935C107.376 12.2436 107.612 11.565 107.778 10.8681C107.916 10.3324 107.916 9.77034 107.778 9.23465C107.634 8.74479 107.314 8.32565 106.879 8.05858C106.28 7.72989 105.601 7.57701 104.919 7.61755L102.289 7.50321Z"
     fill="#FFF8E7"
     id="path18" />
  <path
     d="M114.687 37.5747L133.063 4.90607H148.009L131.789 33.7525H145.902L144.04 37.5747H114.687Z"
     fill="#FFF8E7"
     id="path20" />
  <path
     d="M150.557 37.5747L168.933 4.90607H183.83L165.503 37.5747H150.557Z"
     fill="#FFF8E7"
     id="path22" />
  <path
     d="M175.647 37.5747L194.007 4.93872H204.983L207.776 26.255L219.782 5.02039H224.535L206.208 37.6891H195.15L192.357 16.4544L180.4 37.6891L175.647 37.5747Z"
     fill="#FFF8E7"
     id="path24" />
  <path
     d="M215.486 37.5747L233.797 4.90607H248.743L240.184 20.146L266.319 4.90607H274.159L254.852 16.1768L257.204 37.5421H243.646L242.356 23.4292L236.329 26.9574L230.367 37.5421L215.486 37.5747Z"
     fill="#FFF8E7"
     id="path26" />
  <path
     d="M0.0120323 63.464C-0.0204918 63.7218 0.0132624 63.985 0.109137 64.2207C0.205012 64.4563 0.358679 64.654 0.550993 64.789C0.807009 64.9627 1.11187 65.0124 1.39931 64.9274C1.68676 64.8423 1.9336 64.6294 2.08642 64.3347L9.32252 50.4033C9.47322 50.1037 9.51665 49.7476 9.44335 49.4114C9.37006 49.0752 9.18591 48.7857 8.93051 48.6051C8.75867 48.482 8.56084 48.4165 8.35885 48.4158C8.163 48.4139 7.96997 48.4703 7.79836 48.5797C7.62674 48.6891 7.48225 48.8477 7.37873 49.0404L0.175336 62.9908C0.0920952 63.133 0.0364148 63.2945 0.0120323 63.464V63.464ZM0.567344 4.78532C0.591452 4.95798 0.641234 5.12449 0.714397 5.27748C0.790035 5.43858 0.89372 5.57972 1.01887 5.69199C1.14402 5.80425 1.28784 5.88519 1.44139 5.92967C1.59493 5.97415 1.75484 5.98121 1.91086 5.9504C2.06688 5.91959 2.21567 5.85159 2.34783 5.75069L4.29162 4.44461C4.50788 4.3023 4.67739 4.0811 4.77385 3.81547C4.87031 3.54984 4.88828 3.2547 4.8249 2.97602C4.76151 2.69735 4.62033 2.45078 4.42342 2.27476C4.22651 2.09873 3.9849 2.00311 3.73621 2.00281C3.53633 2.00317 3.33978 2.06177 3.16455 2.17319L1.20441 3.47927C1.01475 3.61384 0.861846 3.80797 0.763547 4.03914C0.665248 4.27031 0.625533 4.52905 0.648995 4.78532H0.567344ZM3.39315 10.4639C3.40973 10.6386 3.46001 10.8068 3.5402 10.9561C3.69034 11.2539 3.93606 11.4708 4.22373 11.5595C4.51139 11.6482 4.81765 11.6013 5.07563 11.4293L7.03577 10.1232C7.29281 9.94921 7.47998 9.66446 7.55649 9.3311C7.633 8.99774 7.59262 8.64286 7.44413 8.3439C7.34818 8.16435 7.21657 8.01399 7.0603 7.90533C6.90403 7.79668 6.72763 7.73286 6.54576 7.71925C6.34856 7.71726 6.15523 7.78316 5.99035 7.90855L4.03021 9.21463C3.83754 9.34068 3.68182 9.53052 3.58287 9.75985C3.48393 9.98917 3.44632 10.2475 3.4749 10.5018L3.39315 10.4639ZM6.21906 16.1425C6.23564 16.3172 6.28582 16.4854 6.36601 16.6346C6.51644 16.932 6.76097 17.1497 7.04764 17.2416C7.33431 17.3335 7.64054 17.2923 7.90144 17.1268L9.86158 15.8018C10.1186 15.6278 10.3058 15.343 10.3823 15.0097C10.4588 14.6763 10.4184 14.3214 10.2699 14.0225C10.1705 13.8228 10.0277 13.6566 9.8558 13.5404C9.68391 13.4242 9.4889 13.362 9.28992 13.36C9.09243 13.3556 8.89852 13.4217 8.73451 13.5493L6.77437 14.8554C6.58016 14.9794 6.42312 15.1689 6.32394 15.3988C6.22476 15.6287 6.18819 15.888 6.21906 16.1425ZM9.04487 21.8211C9.0559 21.9944 9.1006 22.1627 9.17557 22.3132C9.24833 22.4626 9.34612 22.5936 9.46319 22.6985C9.58027 22.8035 9.71425 22.8803 9.85729 22.9243C10.0003 22.9684 10.1496 22.979 10.2962 22.9553C10.4428 22.9316 10.5838 22.8742 10.711 22.7864L12.6711 21.4804C12.8 21.396 12.9131 21.2827 13.0036 21.147C13.0942 21.0114 13.1604 20.8561 13.1984 20.6903C13.2365 20.5245 13.2456 20.3516 13.2252 20.1818C13.2047 20.0119 13.1552 19.8485 13.0795 19.7011C12.98 19.5014 12.8372 19.3352 12.6654 19.219C12.4935 19.1028 12.2984 19.0406 12.0994 19.0386C11.897 19.0362 11.6985 19.102 11.5277 19.2279L9.56758 20.5339C9.37792 20.6626 9.22546 20.8536 9.12951 21.0827C9.03356 21.3118 8.9984 21.5688 9.02852 21.8211H9.04487ZM10.0086 44.1568C9.96815 44.4582 10.02 44.7665 10.1551 45.0283C10.2902 45.29 10.5002 45.4887 10.7485 45.5899C10.9968 45.691 11.2678 45.6883 11.5146 45.5821C11.7613 45.4759 11.9682 45.2731 12.0994 45.0086L14.2066 40.939C14.2974 40.7891 14.36 40.6187 14.3903 40.439C14.4206 40.2592 14.4181 40.074 14.3826 39.8955C14.3472 39.717 14.2797 39.5491 14.1846 39.4028C14.0896 39.2565 13.969 39.1349 13.8308 39.0461C13.6384 38.9849 13.4353 38.9849 13.2428 39.0461C13.0478 39.0476 12.8566 39.1077 12.6877 39.2205C12.5188 39.3333 12.3779 39.495 12.279 39.6897L10.1719 43.6647C10.106 43.8212 10.0567 43.9865 10.025 44.1568H10.0086ZM11.8544 27.4807C11.8785 27.6534 11.9282 27.8199 12.0014 27.9729C12.0741 28.1222 12.1719 28.2532 12.289 28.3582C12.4061 28.4631 12.5401 28.5399 12.6831 28.584C12.8261 28.6281 12.9754 28.6386 13.122 28.6149C13.2686 28.5912 13.4096 28.5338 13.5368 28.4461L15.4969 27.14C15.7064 26.9929 15.8688 26.7706 15.9595 26.5069C16.0503 26.2432 16.0644 25.9525 15.9998 25.6787C15.9352 25.4048 15.7953 25.1629 15.6014 24.9894C15.4075 24.8159 15.1702 24.7203 14.9253 24.7172C14.7309 24.7199 14.54 24.7784 14.3699 24.8875L12.4097 26.1936C12.2214 26.325 12.0692 26.5159 11.9709 26.7438C11.8725 26.9716 11.8322 27.2272 11.8544 27.4807V27.4807ZM14.6802 33.1593C14.6968 33.3341 14.747 33.5022 14.8272 33.6514C14.9746 33.9525 15.2191 34.1735 15.507 34.2658C15.7949 34.358 16.1026 34.3141 16.3626 34.1436L18.3228 32.8375C18.5809 32.6599 18.7685 32.3718 18.8449 32.0354C18.9213 31.6989 18.8804 31.3412 18.7311 31.0393C18.6308 30.8418 18.4875 30.6784 18.3155 30.5655C18.1434 30.4525 17.9488 30.394 17.7511 30.3957C17.5562 30.3942 17.3644 30.453 17.1957 30.5661L15.2355 31.8722C15.0444 32.0001 14.8898 32.1903 14.7911 32.4191C14.6924 32.6479 14.6538 32.9053 14.6802 33.1593V33.1593Z"
     fill="#A5A3A1"
     id="path28"
     style="fill:#fff8e7;fill-opacity:1" />
  <path
     fill-rule="evenodd"
     clip-rule="evenodd"
     d="M30.9701 0.726042C31.2468 0.274937 31.7382 0 32.2674 0H44.1902C44.7562 0 45.2755 0.314104 45.5383 0.81542L62.0273 32.2714C62.256 32.7078 62.2594 33.2279 62.0371 33.6672L45.5481 66.1377C45.2886 66.6491 44.7641 66.9708 44.191 66.9708H32.2681C31.7423 66.9708 31.2538 66.6993 30.9759 66.2529C30.6981 65.8064 30.6703 65.2483 30.9026 64.7765L46.5481 32.9888L30.9112 2.2115C30.6715 1.73965 30.6941 1.17715 30.9709 0.726042H30.9701ZM34.748 3.04414L49.606 32.2886C49.823 32.7158 49.8262 33.2203 49.6142 33.6502L34.7125 63.9267H43.2556L58.9661 32.9891L43.2692 3.04414H34.748Z"
     fill="#4CCEC1"
     id="path30" />
  <path
     fill-rule="evenodd"
     clip-rule="evenodd"
     d="M8.33066 0.726042C8.60744 0.274937 9.09866 0 9.62791 0H21.5508C22.1168 0 22.6361 0.314104 22.8989 0.81542L39.3879 32.2714C39.6166 32.7078 39.62 33.2279 39.3977 33.6672L22.9086 66.1377C22.6491 66.6491 22.1247 66.9708 21.5516 66.9708H9.62871C9.10289 66.9708 8.61437 66.6993 8.33654 66.2529C8.05869 65.8064 8.03092 65.2483 8.26316 64.7765L23.9087 32.9888L8.27184 2.2115C8.0321 1.73965 8.05469 1.17715 8.33146 0.726042H8.33066ZM12.1085 3.04414L26.9666 32.2886C27.1836 32.7158 27.1868 33.2203 26.9748 33.6502L12.0731 63.9267H20.6162L36.3266 32.9891L20.6297 3.04414H12.1085Z"
     fill="#FFF8E7"
     id="path32" />
</svg>
